<svg width="12" height="12" viewBox="0 0 12 12" fill="none" xmlns="http://www.w3.org/2000/svg">
<g clip-path="url(#clip0_565_7672)">
<path fill-rule="evenodd" clip-rule="evenodd" d="M3.76922 0.666371C2.89017 0.706034 2.12825 0.920953 1.51302 1.53359C0.895635 2.14944 0.683386 2.91438 0.643624 3.78429C0.618907 4.32725 0.474376 8.42918 0.893486 9.50492C1.17612 10.2306 1.73277 10.7886 2.46514 11.0722C2.80687 11.2051 3.19698 11.2951 3.76922 11.3214C8.55407 11.5379 10.3278 11.42 11.0757 9.50492C11.2084 9.16403 11.2998 8.77426 11.325 8.20343C11.5437 3.40632 11.2896 2.36652 10.4557 1.53359C9.79421 0.873784 9.01616 0.42464 3.76922 0.666371ZM3.81327 10.3566C3.28939 10.333 3.00515 10.2457 2.81547 10.1723C2.33833 9.98682 1.97994 9.62991 1.79564 9.15555C1.47647 8.33817 1.58233 4.45598 1.61081 3.8278C1.63875 3.21248 1.7634 2.65012 2.19756 2.21597C2.73488 1.67998 3.42909 1.41729 8.1559 1.63062C8.77275 1.65849 9.33641 1.78289 9.77164 2.21597C10.309 2.75196 10.5755 3.45151 10.3584 8.16019C10.3347 8.68278 10.2472 8.96635 10.1736 9.15555C9.68728 10.4017 8.56856 10.5747 3.81327 10.3566ZM8.20803 3.1325C8.20803 3.48732 8.49658 3.77585 8.85282 3.77585C9.20906 3.77585 9.49814 3.48732 9.49814 3.1325C9.49814 2.77767 9.20906 2.4894 8.85282 2.4894C8.49658 2.4894 8.20803 2.77767 8.20803 3.1325ZM3.22545 5.9936C3.22545 7.51367 4.46076 8.74607 5.9846 8.74607C7.50844 8.74607 8.74374 7.51367 8.74374 5.9936C8.74374 4.47353 7.50844 3.24192 5.9846 3.24192C4.46076 3.24192 3.22545 4.47353 3.22545 5.9936ZM4.1937 5.9936C4.1937 5.00738 4.99539 4.20722 5.9846 4.20722C6.97381 4.20722 7.77549 5.00738 7.77549 5.9936C7.77549 6.98036 6.97381 7.78077 5.9846 7.78077C4.99539 7.78077 4.1937 6.98036 4.1937 5.9936Z" fill="white"/>
</g>
<defs>
<clipPath id="clip0_565_7672">
<rect width="12" height="12" fill="white"/>
</clipPath>
</defs>
</svg>
