<svg width="12" height="12" viewBox="0 0 12 12" fill="none" xmlns="http://www.w3.org/2000/svg">
<path d="M6.24643 0.386084C6.8603 0.376709 7.46968 0.381584 8.07868 0.376709C8.09893 1.13833 8.40793 1.82383 8.89955 2.33158L8.8988 2.33083C9.42793 2.80746 10.1164 3.11646 10.8754 3.16896L10.8859 3.16971V5.05821C10.1689 5.04021 9.49468 4.87483 8.8868 4.59058L8.91755 4.60333C8.62355 4.46196 8.37493 4.31683 8.13868 4.15483L8.15818 4.16758C8.15368 5.53596 8.16268 6.90433 8.1488 8.26783C8.11018 8.96271 7.87918 9.59646 7.50868 10.1256L7.51618 10.114C6.89668 11.0012 5.89318 11.5836 4.75205 11.6181H4.7468C4.70068 11.6203 4.6463 11.6215 4.59155 11.6215C3.9428 11.6215 3.33643 11.4407 2.81968 11.1268L2.83468 11.1355C1.89418 10.5696 1.24543 9.60133 1.12543 8.47521L1.12393 8.45983C1.11455 8.22546 1.11005 7.99108 1.11943 7.76158C1.30318 5.96946 2.80468 4.58308 4.6298 4.58308C4.83493 4.58308 5.03593 4.60071 5.2313 4.63408L5.2103 4.63108C5.21968 5.32446 5.19155 6.01821 5.19155 6.71158C5.03293 6.65421 4.84993 6.62083 4.65905 6.62083C3.95855 6.62083 3.36268 7.06858 3.14218 7.69371L3.1388 7.70496C3.08893 7.86508 3.06005 8.04921 3.06005 8.23971C3.06005 8.31696 3.06493 8.39346 3.07393 8.46846L3.07318 8.45946C3.19768 9.22671 3.85543 9.80571 4.64855 9.80571C4.67143 9.80571 4.69393 9.80533 4.71643 9.80421H4.71305C5.26168 9.78771 5.73793 9.49258 6.00718 9.05646L6.01093 9.04971C6.11105 8.91021 6.17968 8.74146 6.20255 8.55808L6.20293 8.55283C6.2498 7.71396 6.23105 6.87996 6.23555 6.04108C6.24005 4.15258 6.23105 2.26858 6.24493 0.384959L6.24643 0.386084Z" fill="white"/>
</svg>
