<svg width="26" height="26" viewBox="0 0 26 26" fill="none" xmlns="http://www.w3.org/2000/svg">
<circle cx="13" cy="13" r="12.675" stroke="white" stroke-width="0.65"/>
<path d="M13.5794 7.38608C14.1933 7.37671 14.8027 7.38158 15.4117 7.37671C15.4319 8.13833 15.7409 8.82383 16.2326 9.33158L16.2318 9.33083C16.7609 9.80746 17.4494 10.1165 18.2084 10.169L18.2189 10.1697V12.0582C17.5019 12.0402 16.8277 11.8748 16.2198 11.5906L16.2506 11.6033C15.9566 11.462 15.7079 11.3168 15.4717 11.1548L15.4912 11.1676C15.4867 12.536 15.4957 13.9043 15.4818 15.2678C15.4432 15.9627 15.2122 16.5965 14.8417 17.1256L14.8492 17.114C14.2297 18.0012 13.2262 18.5836 12.0851 18.6181H12.0798C12.0337 18.6203 11.9793 18.6215 11.9246 18.6215C11.2758 18.6215 10.6694 18.4407 10.1527 18.1268L10.1677 18.1355C9.22719 17.5696 8.57844 16.6013 8.45844 15.4752L8.45694 15.4598C8.44756 15.2255 8.44306 14.9911 8.45244 14.7616C8.63619 12.9695 10.1377 11.5831 11.9628 11.5831C12.1679 11.5831 12.3689 11.6007 12.5643 11.6341L12.5433 11.6311C12.5527 12.3245 12.5246 13.0182 12.5246 13.7116C12.3659 13.6542 12.1829 13.6208 11.9921 13.6208C11.2916 13.6208 10.6957 14.0686 10.4752 14.6937L10.4718 14.705C10.4219 14.8651 10.3931 15.0492 10.3931 15.2397C10.3931 15.317 10.3979 15.3935 10.4069 15.4685L10.4062 15.4595C10.5307 16.2267 11.1884 16.8057 11.9816 16.8057C12.0044 16.8057 12.0269 16.8053 12.0494 16.8042H12.0461C12.5947 16.7877 13.0709 16.4926 13.3402 16.0565L13.3439 16.0497C13.4441 15.9102 13.5127 15.7415 13.5356 15.5581L13.5359 15.5528C13.5828 14.714 13.5641 13.88 13.5686 13.0411C13.5731 11.1526 13.5641 9.26858 13.5779 7.38496L13.5794 7.38608Z" fill="white"/>
</svg>
