<?xml version="1.0" encoding="UTF-8"?>
<svg xmlns="http://www.w3.org/2000/svg" width="40" height="40" fill="none">
  <circle cx="20" cy="20" r="19.5" stroke="#F6F3EA"></circle>
  <path fill-rule="evenodd" clip-rule="evenodd" d="M16.283 11.11c-1.465.067-2.735.425-3.76 1.446-1.03 1.026-1.383 2.301-1.45 3.751-.04.905-.282 7.742.417 9.534a4.537 4.537 0 002.62 2.612c.569.222 1.219.372 2.173.416 7.974.36 10.93.164 12.177-3.028.221-.568.374-1.217.416-2.169.364-7.995-.06-9.728-1.45-11.116-1.102-1.1-2.398-1.848-11.143-1.445zm.073 16.15c-.873-.039-1.347-.184-1.663-.306a2.93 2.93 0 01-1.7-1.695c-.532-1.362-.355-7.832-.308-8.88.047-1.025.255-1.962.978-2.686.896-.893 2.053-1.331 9.93-.976 1.029.047 1.968.254 2.694.976.895.893 1.34 2.06.978 9.907-.04.871-.186 1.344-.308 1.66-.81 2.076-2.675 2.364-10.6 2zm7.325-12.04a1.075 1.075 0 002.15 0 1.074 1.074 0 00-2.15 0zm-8.305 4.77a4.593 4.593 0 004.599 4.587 4.593 4.593 0 004.599-4.588 4.592 4.592 0 00-4.599-4.586 4.592 4.592 0 00-4.599 4.586zm1.614 0a2.981 2.981 0 012.985-2.978 2.981 2.981 0 012.985 2.977 2.982 2.982 0 01-2.985 2.979 2.982 2.982 0 01-2.985-2.979z" fill="#F6F3EA"></path>
</svg>
