<?xml version="1.0" encoding="UTF-8"?>
<svg xmlns="http://www.w3.org/2000/svg" width="40" height="40" fill="none">
  <circle cx="20" cy="20" r="19.5" stroke="#F6F3EA"></circle>
  <path d="M20.41 10.644c1.023-.016 2.039-.008 3.054-.016a4.852 4.852 0 001.368 3.258l-.001-.001a5.482 5.482 0 003.294 1.397h.018v3.148a8.33 8.33 0 01-3.332-.779l.05.021a9.616 9.616 0 01-1.297-.747l.032.021c-.007 2.28.008 4.561-.015 6.834a5.946 5.946 0 01-1.067 3.096l.012-.02a5.822 5.822 0 01-4.607 2.508h-.008a5.67 5.67 0 01-3.212-.819l.025.014a5.903 5.903 0 01-2.849-4.434l-.002-.025c-.016-.39-.024-.781-.008-1.164.306-2.987 2.809-5.297 5.85-5.297.343 0 .678.029 1.003.085l-.035-.005c.016 1.155-.031 2.311-.031 3.467a2.681 2.681 0 00-3.416 1.637l-.005.019a3.033 3.033 0 00-.108 1.272l-.002-.015a2.662 2.662 0 002.74 2.241h-.007a2.623 2.623 0 002.157-1.246l.007-.011c.166-.233.28-.514.319-.82v-.008c.079-1.398.047-2.788.055-4.186.007-3.148-.008-6.288.016-9.427l.002.002z" fill="#F6F3EA"></path>
</svg>
