<?xml version="1.0" encoding="UTF-8"?>
<svg xmlns="http://www.w3.org/2000/svg" width="40" height="40" fill="none">
  <circle cx="20" cy="20" r="19.5" stroke="#F6F3EA"></circle>
  <path d="M27.76 15.784c-.18-.636-.707-1.138-1.377-1.308-1.214-.31-6.083-.31-6.083-.31s-4.869 0-6.083.31c-.67.17-1.197.671-1.377 1.308-.325 1.153-.325 4.3-.325 4.3s0 3.146.325 4.3c.18.635.707 1.137 1.377 1.307C15.43 26 20.3 26 20.3 26s4.869 0 6.083-.31c.67-.17 1.197-.67 1.376-1.307.326-1.153.326-4.3.326-4.3s0-3.146-.326-4.3zm-9.017 6.22v-3.842c0-.285.325-.462.584-.32l3.503 1.921c.26.142.26.499 0 .64l-3.503 1.922c-.26.143-.584-.035-.584-.32z" fill="#F6F3EA"></path>
</svg>
