<?xml version="1.0" encoding="UTF-8"?>
<svg xmlns="http://www.w3.org/2000/svg" width="14" height="14" viewBox="0 0 14 14" fill="none">
  <path d="M12.8159 10.6928C12.8159 10.9028 12.7692 11.1187 12.6701 11.3287C12.5709 11.5387 12.4426 11.737 12.2734 11.9237C11.9876 12.2387 11.6726 12.4662 11.3167 12.612C10.9667 12.7578 10.5876 12.8337 10.1792 12.8337C9.58425 12.8337 8.94841 12.6937 8.27758 12.4078C7.60675 12.122 6.93591 11.737 6.27091 11.2528C5.60008 10.7628 4.96425 10.2203 4.35758 9.61949C3.75675 9.01283 3.21425 8.37699 2.73008 7.71199C2.25175 7.04699 1.86675 6.38199 1.58675 5.72283C1.30675 5.05783 1.16675 4.42199 1.16675 3.81533C1.16675 3.41866 1.23675 3.03949 1.37675 2.68949C1.51675 2.33366 1.73841 2.00699 2.04758 1.71533C2.42091 1.34783 2.82925 1.16699 3.26091 1.16699C3.42425 1.16699 3.58758 1.20199 3.73341 1.27199C3.88508 1.34199 4.01925 1.44699 4.12425 1.59866L5.47758 3.50616C5.58258 3.65199 5.65841 3.78616 5.71091 3.91449C5.76341 4.03699 5.79258 4.15949 5.79258 4.27033C5.79258 4.41033 5.75175 4.55033 5.67008 4.68449C5.59425 4.81866 5.48341 4.95866 5.34341 5.09866L4.90008 5.55949C4.83591 5.62366 4.80675 5.69949 4.80675 5.79283C4.80675 5.83949 4.81258 5.88033 4.82425 5.92699C4.84175 5.97366 4.85925 6.00866 4.87091 6.04366C4.97591 6.23616 5.15675 6.48699 5.41341 6.79033C5.67591 7.09366 5.95591 7.40283 6.25925 7.71199C6.57425 8.02116 6.87758 8.30699 7.18675 8.56949C7.49008 8.82616 7.74091 9.00116 7.93925 9.10616C7.96841 9.11783 8.00341 9.13533 8.04425 9.15283C8.09091 9.17033 8.13758 9.17616 8.19008 9.17616C8.28925 9.17616 8.36508 9.14116 8.42925 9.07699L8.87258 8.63949C9.01841 8.49366 9.15841 8.38283 9.29258 8.31283C9.42675 8.23116 9.56091 8.19033 9.70675 8.19033C9.81758 8.19033 9.93425 8.21366 10.0626 8.26616C10.1909 8.31866 10.3251 8.39449 10.4709 8.49366L12.4017 9.86449C12.5534 9.96949 12.6584 10.092 12.7226 10.2378C12.7809 10.3837 12.8159 10.5295 12.8159 10.6928Z" stroke="#F6F3EA" stroke-miterlimit="10"></path>
</svg>
