<?xml version="1.0" encoding="UTF-8"?>
<svg xmlns="http://www.w3.org/2000/svg" width="12" height="12" viewBox="0 0 12 12" fill="none">
  <path d="M6.26918 0.199326L7.17133 3.15802C7.29149 3.55211 7.50672 3.91061 7.79806 4.20195C8.08939 4.49328 8.44789 4.70851 8.84198 4.82867L11.8007 5.73082C12.0664 5.81192 12.0664 6.18808 11.8007 6.26918L8.84198 7.17133C8.44789 7.29149 8.08939 7.50672 7.79806 7.79806C7.50672 8.08939 7.29149 8.44789 7.17133 8.84198L6.26905 11.8007C6.18796 12.0664 5.81179 12.0664 5.73069 11.8007L4.82855 8.84198C4.70838 8.44789 4.49315 8.08939 4.20182 7.79806C3.91049 7.50672 3.55199 7.29149 3.1579 7.17133L0.199326 6.26905C-0.0664421 6.18796 -0.0664421 5.81179 0.199326 5.73069L3.15802 4.82855C3.55211 4.70838 3.91061 4.49315 4.20195 4.20182C4.49328 3.91049 4.70851 3.55199 4.82867 3.1579L5.73095 0.199326C5.81204 -0.0664421 6.18808 -0.0664421 6.26918 0.199326Z" fill="#CB5140"></path>
</svg>
