<?xml version="1.0" encoding="UTF-8"?>
<svg xmlns="http://www.w3.org/2000/svg" width="699" height="714" viewBox="0 0 699 714" fill="none">
  <path opacity="0.1" d="M626.929 262.876L686.634 325.359C703.122 342.613 703.122 370.587 686.634 387.842L388.098 700.258C371.61 717.514 344.879 717.514 328.391 700.258L268.683 637.777L328.391 575.293L388.098 637.777C396.341 646.403 409.707 646.403 417.952 637.777L477.658 575.293C485.903 566.665 485.903 552.677 477.658 544.049L335.853 395.653L246.293 489.377C213.317 523.886 159.853 523.886 126.878 489.377L0 356.599L59.7072 294.116L216.44 458.136C224.682 466.763 238.048 466.763 246.293 458.136L320.928 380.031L194.048 247.253C169.317 221.372 169.317 179.41 194.048 153.53L328.391 12.9409C344.879 -4.31365 371.61 -4.31365 388.098 12.9409L447.805 75.4241L388.098 137.909L328.391 75.4241C320.147 66.7977 306.781 66.7977 298.536 75.4241L238.829 137.909C230.586 146.536 230.586 160.523 238.829 169.15L537.367 481.566C545.61 490.194 558.976 490.194 567.22 481.566L626.929 419.083C635.172 410.456 635.172 396.468 626.929 387.842L567.22 325.359L626.929 262.876Z" fill="#F6F3EA"></path>
</svg>
