<svg xmlns="http://www.w3.org/2000/svg" width="18" height="18" viewBox="0 0 18 18" fill="none">
  <path d="M16.5 12.69V14.94C16.5 15.24 16.39 15.53 16.19 15.75C15.99 15.97 15.72 16.11 15.42 16.14C14.91 16.2 14.4 16.23 13.88 16.23C7.33 16.23 2.02 10.92 2.02 4.37C2.02 3.85 2.05 3.34 2.11 2.83C2.14 2.53 2.28 2.26 2.5 2.06C2.72 1.86 3.01 1.75 3.31 1.75H5.56C6.12 1.75 6.6 2.15 6.69 2.7C6.77 3.17 6.9 3.63 7.07 4.07C7.22 4.44 7.12 4.87 6.82 5.14L5.83 6.03C6.86 8.04 8.46 9.64 10.47 10.67L11.36 9.68C11.63 9.38 12.06 9.28 12.43 9.43C12.87 9.6 13.33 9.73 13.8 9.81C14.35 9.9 14.75 10.38 14.75 10.94V12.69H16.5Z" stroke="#680103" stroke-width="1.5" stroke-linecap="round" stroke-linejoin="round"/>
</svg>
