<svg width="57" height="56" viewBox="0 0 57 56" fill="none" xmlns="http://www.w3.org/2000/svg">
<rect opacity="0.2" x="0.226562" width="56" height="56" rx="28" fill="#F6F3EA"/>
<path d="M18.8823 24.5058L14.0173 32.4823V32.6596H18.8823V34.7866H11.6665V32.6596L16.5641 24.6831V24.5058H11.6665V22.3787H18.8823V24.5058Z" fill="#F6F3EA"/>
<path d="M19.3436 34.7866V34.3967L21.8577 22.3787L25.6451 22.3964L28.1755 34.3967V34.7866H26.0859L25.4492 31.3833H22.0699L21.4332 34.7866H19.3436ZM22.3637 29.469H25.139L24.2085 24.4349H23.3106L22.3637 29.469Z" fill="#F6F3EA"/>
<path d="M29.1966 22.3787H31.2046V32.8014H34.5676V34.7866H29.1966V22.3787Z" fill="#F6F3EA"/>
<path d="M34.7666 28.5827C34.7666 27.0819 34.9897 25.8588 35.4359 24.9135C35.8821 23.9681 36.4644 23.2768 37.1827 22.8396C37.9119 22.3905 38.701 22.166 39.5499 22.166C40.3988 22.166 41.1824 22.3905 41.9007 22.8396C42.6299 23.2768 43.2176 23.9681 43.6638 24.9135C44.1101 25.8588 44.3332 27.0819 44.3332 28.5827C44.3332 30.0834 44.1101 31.3065 43.6638 32.2519C43.2176 33.1972 42.6299 33.8945 41.9007 34.3435C41.1824 34.7807 40.3988 34.9993 39.5499 34.9993C38.701 34.9993 37.9119 34.7807 37.1827 34.3435C36.4644 33.8945 35.8821 33.1972 35.4359 32.2519C34.9897 31.3065 34.7666 30.0834 34.7666 28.5827ZM36.8399 28.5827C36.8399 29.5517 36.9596 30.3552 37.199 30.9934C37.4385 31.6315 37.7595 32.116 38.1622 32.4469C38.5758 32.7659 39.0329 32.9255 39.5335 32.9255C40.0342 32.9255 40.4913 32.7659 40.9049 32.4469C41.3293 32.116 41.6613 31.6315 41.9007 30.9934C42.151 30.3552 42.2762 29.5517 42.2762 28.5827C42.2762 27.6019 42.151 26.7924 41.9007 26.1543C41.6504 25.5162 41.3184 25.0376 40.9049 24.7185C40.4913 24.3994 40.0396 24.2399 39.5499 24.2399C39.0383 24.2399 38.5758 24.4053 38.1622 24.7362C37.7595 25.0553 37.4385 25.5339 37.199 26.172C36.9596 26.8101 36.8399 27.6137 36.8399 28.5827Z" fill="#F6F3EA"/>
</svg>
